<svg width="25" height="24" viewBox="0 0 25 24" fill="none" xmlns="http://www.w3.org/2000/svg">
<path d="M12.3994 15C14.0563 15 15.3994 13.6569 15.3994 12C15.3994 10.3431 14.0563 9 12.3994 9C10.7426 9 9.39941 10.3431 9.39941 12C9.39941 13.6569 10.7426 15 12.3994 15Z" fill="#999999"/>
<path fill-rule="evenodd" clip-rule="evenodd" d="M1.72283 11.4467C3.21008 6.97571 7.42733 3.75 12.3999 3.75C17.3702 3.75 21.5859 6.97271 23.075 11.4405C23.1953 11.8015 23.1954 12.1922 23.0753 12.5533C21.588 17.0243 17.3708 20.25 12.3982 20.25C7.42789 20.25 3.21225 17.0273 1.72315 12.5595C1.60281 12.1985 1.6027 11.8078 1.72283 11.4467ZM17.6494 12C17.6494 14.8995 15.2989 17.25 12.3994 17.25C9.49992 17.25 7.14941 14.8995 7.14941 12C7.14941 9.1005 9.49992 6.75 12.3994 6.75C15.2989 6.75 17.6494 9.1005 17.6494 12Z" fill="#999999"/>
</svg>
